<svg width="25" height="25" viewBox="0 0 25 25" fill="none" xmlns="http://www.w3.org/2000/svg">
<path d="M12.5 0C5.5971 0 0 5.74219 0 12.8181C0 18.4821 3.58259 23.2813 8.54911 24.9777C8.62723 24.9944 8.6942 25 8.76116 25C9.22433 25 9.4029 24.6596 9.4029 24.3638C9.4029 24.0569 9.39174 23.2533 9.38616 22.1819C8.91741 22.2879 8.49888 22.3326 8.125 22.3326C5.71987 22.3326 5.17299 20.4632 5.17299 20.4632C4.60379 18.9844 3.78348 18.5882 3.78348 18.5882C2.69531 17.8237 3.7779 17.8013 3.86161 17.8013H3.86719C5.12277 17.9129 5.78125 19.1295 5.78125 19.1295C6.40625 20.2232 7.2433 20.5301 7.99107 20.5301C8.57701 20.5301 9.10714 20.3404 9.41964 20.1953C9.53125 19.3694 9.85491 18.8058 10.2121 18.4821C7.43862 18.1585 4.52009 17.0592 4.52009 12.1484C4.52009 10.7478 5.00558 9.60379 5.80357 8.71094C5.67522 8.38728 5.24554 7.08147 5.92634 5.31808C5.92634 5.31808 6.01562 5.29018 6.20536 5.29018C6.65737 5.29018 7.67857 5.46317 9.36384 6.63504C10.3627 6.35045 11.4286 6.21094 12.4944 6.20536C13.5547 6.21094 14.6261 6.35045 15.625 6.63504C17.3103 5.46317 18.3315 5.29018 18.7835 5.29018C18.9732 5.29018 19.0625 5.31808 19.0625 5.31808C19.7433 7.08147 19.3136 8.38728 19.1853 8.71094C19.9833 9.60938 20.4687 10.7533 20.4687 12.1484C20.4687 17.0703 17.5446 18.1529 14.76 18.471C15.2065 18.8672 15.6083 19.6484 15.6083 20.8426C15.6083 22.5558 15.5915 23.9397 15.5915 24.3583C15.5915 24.6596 15.7645 25 16.2277 25C16.2946 25 16.3728 24.9944 16.4509 24.9777C21.423 23.2813 25 18.4766 25 12.8181C25 5.74219 19.4029 0 12.5 0Z" fill="#E8F0FD"/>
</svg>
