<svg width="25" height="25" viewBox="0 0 25 25" fill="none" xmlns="http://www.w3.org/2000/svg">
<path d="M23.0008 0H2.13597C0.996353 0 0 0.820526 0 1.94712V22.8575C0 23.9906 0.996353 25 2.13597 25H22.9943C24.1404 25 25 23.9841 25 22.8575V1.94712C25.0065 0.820526 24.1404 0 23.0008 0ZM7.74941 20.8388H4.16775V9.70305H7.74941V20.8388ZM6.08231 8.0099H6.05627C4.91013 8.0099 4.16775 7.15681 4.16775 6.08883C4.16775 5.0013 4.92967 4.16775 6.10185 4.16775C7.27403 4.16775 7.99036 4.99479 8.01641 6.08883C8.01641 7.15681 7.27403 8.0099 6.08231 8.0099ZM20.8388 20.8388H17.2571V14.7499C17.2571 13.2912 16.7361 12.2949 15.4402 12.2949C14.4504 12.2949 13.8643 12.9656 13.6038 13.6168C13.5061 13.8513 13.4801 14.1704 13.4801 14.496V20.8388H9.89841V9.70305H13.4801V11.2529C14.001 10.5106 14.8151 9.44256 16.7101 9.44256C19.061 9.44256 20.8388 10.9924 20.8388 14.3332V20.8388V20.8388Z" fill="#E8F0FD"/>
</svg>
